<svg width="14" height="13" viewBox="0 0 14 13" fill="none" xmlns="http://www.w3.org/2000/svg">
<path fill-rule="evenodd" clip-rule="evenodd" d="M6.07112 0.734604C6.35543 0.579075 6.67479 0.498047 6.99859 0.498047C7.32239 0.498047 7.64174 0.579075 7.92605 0.734604C8.21047 0.890194 8.45121 1.11571 8.62325 1.39129L8.62534 1.39463L8.62533 1.39464L13.7315 9.67725L13.7374 9.68693L13.7374 9.68698C13.9061 9.9709 13.9962 10.2944 13.9972 10.6251C13.9981 10.9558 13.9099 11.2799 13.7427 11.5648C13.5757 11.8495 13.3363 12.0843 13.0504 12.2478C12.7645 12.4112 12.4411 12.4983 12.1122 12.5018L12.1047 12.5019V12.5019H1.89245H1.88497L1.88497 12.5018C1.55603 12.4983 1.23264 12.4112 0.946808 12.2478C0.660852 12.0843 0.42147 11.8495 0.254439 11.5648C0.0873139 11.2799 -0.000945382 10.9558 7.63711e-06 10.6251C0.000960656 10.2944 0.091085 9.9709 0.25982 9.68698L0.26563 9.6772L0.265708 9.67725L5.37185 1.39464L5.96771 1.76198L5.37392 1.39129C5.54596 1.11571 5.78671 0.890194 6.07112 0.734604ZM6.56231 2.13139L6.5615 2.13267L1.4611 10.406C1.42076 10.4754 1.40022 10.5522 1.4 10.6292C1.39978 10.7076 1.42061 10.7858 1.46199 10.8564C1.50347 10.9271 1.56474 10.9884 1.64168 11.0324C1.71791 11.076 1.80591 11.1004 1.89694 11.1019H12.1002C12.1913 11.1004 12.2793 11.076 12.3555 11.0324C12.4324 10.9884 12.4937 10.9271 12.5352 10.8564C12.5766 10.7858 12.5974 10.7076 12.5972 10.6292C12.597 10.5522 12.5764 10.4754 12.5361 10.406L7.43567 2.13267L7.43484 2.13135C7.39197 2.06319 7.33038 2.00454 7.25415 1.96284C7.17732 1.92081 7.08923 1.89805 6.99859 1.89805C6.90794 1.89805 6.81985 1.92081 6.74302 1.96284C6.66678 2.00454 6.60518 2.06322 6.56231 2.13139ZM6.99882 4.07312C7.38542 4.07312 7.69882 4.38652 7.69882 4.77312V7.11615C7.69882 7.50275 7.38542 7.81615 6.99882 7.81615C6.61222 7.81615 6.29882 7.50275 6.29882 7.11615V4.77312C6.29882 4.38652 6.61222 4.07312 6.99882 4.07312ZM6.99882 8.75879C6.61222 8.75879 6.29882 9.07219 6.29882 9.45879C6.29882 9.84539 6.61222 10.1588 6.99882 10.1588H7.00509C7.39169 10.1588 7.70509 9.84539 7.70509 9.45879C7.70509 9.07219 7.39169 8.75879 7.00509 8.75879H6.99882Z" fill="#FF3D3D"/>
</svg>
